<svg width="2596" height="712" viewBox="0 0 2596 712" fill="none" xmlns="http://www.w3.org/2000/svg">
<path d="M487.317 611.607L510.706 557.785H531.845L584.419 391.272L627.855 429.956L571.097 611.607H487.317Z" fill="white"/>
<path d="M237.631 557.785H462.454L440.737 611.606H198.127L169.277 517.038L226.077 519.912L237.631 557.785Z" fill="white"/>
<path d="M384.621 100L459.126 148.228L412.349 182.709L384.729 164.5L237.772 262.602L223.572 206.256L384.621 100Z" fill="white"/>
<path d="M496.714 172.617L671.366 289.946L641.353 386.225L598.169 345.017L608.279 312.584L449.938 206.256L496.714 172.617Z" fill="white"/>
<path d="M162.831 312.586L211.878 475.368H155.913L100 289.944L187.655 231.447L203.211 285.638L162.831 312.586Z" fill="white"/>
<path d="M611.985 397.999C617.521 397.999 622.009 393.48 622.009 387.907C622.009 382.333 617.521 377.815 611.985 377.815C606.45 377.815 601.962 382.333 601.962 387.907C601.962 393.48 606.45 397.999 611.985 397.999Z" fill="white"/>
<path d="M2309.12 607.694L2267.91 536.844L2252.22 527.45L2176.48 416.283H2255.36L2295.77 485.175L2310.69 493.787L2387.6 607.694H2309.12ZM2172.56 607.694L2251.43 494.57L2290.28 536.453L2245.55 607.694H2172.56ZM2308.33 527.45L2269.48 485.567L2310.69 416.283H2383.68L2308.33 527.45Z" fill="white"/>
<path d="M2062.95 612C2042.28 612 2023.84 607.694 2007.62 599.083C1991.66 590.21 1978.97 578.206 1969.55 563.071C1960.13 547.674 1955.43 530.451 1955.43 511.402C1955.43 492.352 1960 475.39 1969.16 460.515C1978.58 445.38 1991.4 433.506 2007.62 424.895C2023.84 416.022 2042.15 411.586 2062.56 411.586C2082.96 411.586 2101.14 416.022 2117.1 424.895C2133.32 433.506 2146.14 445.38 2155.56 460.515C2164.98 475.39 2169.69 492.352 2169.69 511.402C2169.69 530.451 2164.98 547.674 2155.56 563.071C2146.4 578.206 2133.71 590.21 2117.49 599.083C2101.54 607.694 2083.35 612 2062.95 612ZM2062.56 551.328C2070.14 551.328 2076.68 549.762 2082.18 546.631C2087.93 543.238 2092.38 538.541 2095.52 532.539C2098.66 526.537 2100.23 519.622 2100.23 511.793C2100.23 503.964 2098.53 497.18 2095.13 491.439C2091.99 485.437 2087.67 480.87 2082.18 477.738C2076.68 474.346 2070.14 472.65 2062.56 472.65C2055.23 472.65 2048.69 474.346 2042.94 477.738C2037.18 481.131 2032.73 485.828 2029.59 491.83C2026.45 497.571 2024.88 504.356 2024.88 512.185C2024.88 519.752 2026.45 526.537 2029.59 532.539C2032.73 538.541 2037.18 543.238 2042.94 546.631C2048.69 549.762 2055.23 551.328 2062.56 551.328Z" fill="white"/>
<path d="M1822.15 607.694V404.149C1822.15 387.97 1825.68 373.487 1832.75 360.7C1839.81 347.652 1849.88 337.214 1862.96 329.385C1876.31 321.556 1892.27 317.642 1910.84 317.642C1924.71 317.642 1936.87 319.991 1947.33 324.688C1957.8 329.124 1966.82 335.126 1974.41 342.694L1931.64 385.36C1929.54 383.011 1926.93 381.315 1923.79 380.271C1920.91 378.967 1917.51 378.314 1913.59 378.314C1906.52 378.314 1900.9 380.402 1896.71 384.577C1892.53 388.752 1890.43 394.363 1890.43 401.409V607.694H1822.15ZM1781.34 473.041V416.283H1944.59V473.041H1781.34Z" fill="white"/>
<path d="M1642.22 611.608C1624.43 611.608 1608.6 607.303 1594.73 598.691C1580.87 590.08 1570.01 578.337 1562.16 563.462C1554.31 548.327 1550.39 531.234 1550.39 512.184C1550.39 492.874 1554.31 475.651 1562.16 460.515C1570.01 445.38 1580.87 433.637 1594.73 425.286C1608.6 416.675 1624.43 412.369 1642.22 412.369C1654.25 412.369 1665.24 414.587 1675.18 419.023C1685.12 423.199 1693.23 429.201 1699.51 437.029C1706.05 444.858 1709.97 453.73 1711.28 463.647V559.939C1709.97 570.116 1706.05 579.119 1699.51 586.948C1693.23 594.516 1685.12 600.518 1675.18 604.954C1665.24 609.39 1654.25 611.608 1642.22 611.608ZM1656.73 550.936C1667.98 550.936 1677.01 547.283 1683.81 539.976C1690.88 532.669 1694.41 523.275 1694.41 511.793C1694.41 504.225 1692.84 497.571 1689.7 491.83C1686.56 486.089 1682.11 481.522 1676.36 478.13C1670.86 474.737 1664.45 473.041 1657.13 473.041C1649.8 473.041 1643.26 474.737 1637.51 478.13C1632.01 481.522 1627.57 486.219 1624.16 492.221C1621.02 497.962 1619.46 504.486 1619.46 511.793C1619.46 519.361 1621.02 526.145 1624.16 532.147C1627.3 537.888 1631.75 542.455 1637.51 545.848C1643.26 549.24 1649.67 550.936 1656.73 550.936ZM1691.66 607.694V556.416L1701.47 509.444L1691.66 463.255V416.283H1758.76V607.694H1691.66Z" fill="white"/>
<path d="M1430.57 607.694V337.214H1498.85V607.694H1430.57ZM1388.19 473.041V416.283H1541.23V473.041H1388.19Z" fill="white"/>
<path d="M1302.19 607.694V499.658C1302.19 490.786 1299.57 483.871 1294.34 478.913C1289.11 473.693 1282.44 471.084 1274.33 471.084C1268.83 471.084 1263.86 472.258 1259.41 474.607C1255.23 476.955 1251.96 480.217 1249.6 484.393C1247.25 488.568 1246.07 493.657 1246.07 499.658L1219.39 487.133C1219.39 471.736 1222.79 458.558 1229.59 447.598C1236.39 436.377 1245.68 427.765 1257.45 421.763C1269.49 415.5 1283.09 412.369 1298.26 412.369C1312.13 412.369 1324.43 415.631 1335.15 422.155C1346.14 428.418 1354.77 436.899 1361.05 447.598C1367.33 458.297 1370.47 470.432 1370.47 484.001V607.694H1302.19ZM1177.79 607.694V416.283H1246.07V607.694H1177.79Z" fill="white"/>
<path d="M1057.43 612C1035.98 612 1017.01 607.825 1000.53 599.474C984.052 590.863 971.102 578.989 961.684 563.854C952.266 548.718 947.557 531.365 947.557 511.793C947.557 492.482 952.135 475.39 961.291 460.515C970.448 445.38 982.874 433.506 998.571 424.895C1014.53 416.022 1032.45 411.586 1052.33 411.586C1071.69 411.586 1088.83 415.761 1103.74 424.112C1118.91 432.202 1130.68 443.553 1139.06 458.167C1147.69 472.519 1152.01 488.96 1152.01 507.487C1152.01 511.402 1151.74 515.446 1151.22 519.622C1150.96 523.536 1150.18 528.103 1148.87 533.322L979.735 534.105V490.264L1121.79 489.09L1091.18 508.27C1090.92 497.571 1089.35 488.829 1086.47 482.044C1083.59 474.998 1079.41 469.649 1073.92 465.995C1068.42 462.342 1061.49 460.515 1053.12 460.515C1044.48 460.515 1037.03 462.603 1030.75 466.778C1024.47 470.954 1019.63 476.825 1016.23 484.393C1012.83 491.961 1011.13 501.094 1011.13 511.793C1011.13 522.753 1012.96 532.148 1016.62 539.976C1020.28 547.544 1025.52 553.285 1032.32 557.199C1039.12 561.114 1047.49 563.071 1057.43 563.071C1066.85 563.071 1075.09 561.505 1082.16 558.374C1089.48 555.242 1096.02 550.415 1101.78 543.891L1137.49 579.511C1128.07 590.21 1116.56 598.3 1102.95 603.78C1089.61 609.26 1074.44 612 1057.43 612Z" fill="white"/>
<path d="M777.211 508.27V456.209H832.149C838.951 456.209 845.099 454.904 850.593 452.295C856.348 449.424 860.926 445.249 864.327 439.769C867.728 434.289 869.429 427.504 869.429 419.415C869.429 411.325 867.728 404.54 864.327 399.06C860.926 393.319 856.348 389.144 850.593 386.534C845.099 383.664 838.951 382.228 832.149 382.228H777.211V330.168H844.314C862.104 330.168 878.193 333.821 892.581 341.128C906.97 348.174 918.35 358.351 926.722 371.66C935.093 384.707 939.279 400.626 939.279 419.415C939.279 437.681 935.093 453.6 926.722 467.169C918.35 480.478 906.97 490.655 892.581 497.701C878.193 504.747 862.104 508.27 844.314 508.27H777.211ZM721.487 607.694V330.168H791.73V607.694H721.487Z" fill="white"/>
<path d="M2416.76 311.121H2441.44C2446.75 311.121 2451.27 311.919 2455 313.513C2458.74 315.108 2461.6 317.469 2463.58 320.594C2465.6 323.688 2466.6 327.516 2466.6 332.077C2466.6 335.554 2465.96 338.616 2464.69 341.263C2463.41 343.911 2461.6 346.144 2459.27 347.962C2456.94 349.748 2454.16 351.136 2450.93 352.124L2447.29 353.895H2425.1L2425 344.373H2441.63C2444.51 344.373 2446.91 343.863 2448.82 342.842C2450.74 341.822 2452.18 340.434 2453.14 338.68C2454.13 336.894 2454.62 334.884 2454.62 332.651C2454.62 330.227 2454.14 328.122 2453.18 326.336C2452.26 324.518 2450.82 323.13 2448.87 322.173C2446.92 321.185 2444.45 320.69 2441.44 320.69H2428.79V380.784H2416.76V311.121ZM2456.59 380.784L2440.2 349.493L2452.8 349.445L2469.43 380.162V380.784H2456.59Z" fill="white"/>
<ellipse cx="2439.1" cy="347.391" rx="56.9006" ry="56.7578" stroke="white" stroke-width="6"/>
</svg>
