<svg width="1104" height="940" viewBox="0 0 1104 940" fill="none" xmlns="http://www.w3.org/2000/svg">
<path d="M653.425 612.591L676.821 558.666H697.965L750.554 391.832L794.002 430.591L737.228 612.591H653.425Z" fill="#EA0707"/>
<path d="M403.671 558.665H628.556L606.833 612.59H364.155L335.298 517.84L392.114 520.719L403.671 558.665Z" fill="#EA0707"/>
<path d="M550.7 100L625.226 148.321L578.437 182.868L550.809 164.624L403.811 262.914L389.607 206.46L550.7 100Z" fill="#EA0707"/>
<path d="M662.824 172.757L837.526 290.311L807.504 386.775L764.308 345.489L774.421 312.993L616.035 206.46L662.824 172.757Z" fill="#EA0707"/>
<path d="M328.848 312.995L377.909 476.09H321.929L266 290.309L353.679 231.7L369.24 285.995L328.848 312.995Z" fill="#EA0707"/>
<path d="M778.128 398.572C783.665 398.572 788.154 394.045 788.154 388.461C788.154 382.877 783.665 378.35 778.128 378.35C772.591 378.35 768.102 382.877 768.102 388.461C768.102 394.045 772.591 398.572 778.128 398.572Z" fill="#EA0707"/>
<path d="M908.795 837.803L887.805 801.65L879.808 796.856L841.225 740.131H881.407L901.998 775.285L909.595 779.679L948.778 837.803H908.795ZM839.226 837.803L879.408 780.078L899.2 801.45L876.41 837.803H839.226ZM908.395 796.856L888.604 775.484L909.595 740.131H946.778L908.395 796.856Z" fill="#F10404"/>
<path d="M783.388 840C772.859 840 763.464 837.803 755.201 833.409C747.071 828.881 740.607 822.756 735.809 815.033C731.011 807.176 728.612 798.388 728.612 788.667C728.612 778.947 730.945 770.291 735.609 762.701C740.407 754.978 746.938 748.919 755.201 744.525C763.464 739.998 772.793 737.734 783.188 737.734C793.584 737.734 802.846 739.998 810.976 744.525C819.239 748.919 825.769 754.978 830.567 762.701C835.365 770.291 837.764 778.947 837.764 788.667C837.764 798.388 835.365 807.176 830.567 815.033C825.903 822.756 819.439 828.881 811.176 833.409C803.046 837.803 793.784 840 783.388 840ZM783.188 809.041C787.053 809.041 790.385 808.242 793.184 806.644C796.116 804.913 798.381 802.516 799.981 799.453C801.58 796.391 802.38 792.862 802.38 788.867C802.38 784.872 801.513 781.41 799.781 778.481C798.182 775.418 795.983 773.088 793.184 771.49C790.385 769.759 787.053 768.893 783.188 768.893C779.457 768.893 776.125 769.759 773.193 771.49C770.261 773.221 767.995 775.618 766.396 778.68C764.796 781.61 763.997 785.072 763.997 789.067C763.997 792.928 764.796 796.391 766.396 799.453C767.995 802.516 770.261 804.913 773.193 806.644C776.125 808.242 779.457 809.041 783.188 809.041Z" fill="#F10404"/>
<path d="M660.719 837.803V733.939C660.719 725.683 662.518 718.293 666.117 711.768C669.715 705.11 674.846 699.784 681.51 695.789C688.307 691.795 696.437 689.797 705.899 689.797C712.963 689.797 719.16 690.996 724.491 693.392C729.822 695.656 734.42 698.719 738.285 702.58L716.494 724.352C715.428 723.153 714.095 722.288 712.496 721.755C711.03 721.089 709.297 720.757 707.298 720.757C703.7 720.757 700.835 721.822 698.702 723.952C696.57 726.083 695.504 728.946 695.504 732.541V837.803H660.719ZM639.928 769.093V740.131H723.091V769.093H639.928Z" fill="#F10404"/>
<path d="M569.052 839.8C559.989 839.8 551.926 837.603 544.862 833.209C537.799 828.815 532.268 822.822 528.27 815.232C524.272 807.509 522.272 798.787 522.272 789.067C522.272 779.213 524.272 770.425 528.27 762.701C532.268 754.978 537.799 748.986 544.862 744.725C551.926 740.331 559.989 738.134 569.052 738.134C575.182 738.134 580.78 739.265 585.844 741.529C590.909 743.66 595.04 746.722 598.239 750.717C601.571 754.712 603.57 759.239 604.236 764.299V813.435C603.57 818.628 601.571 823.222 598.239 827.217C595.04 831.078 590.909 834.141 585.844 836.405C580.78 838.668 575.182 839.8 569.052 839.8ZM576.448 808.841C582.179 808.841 586.777 806.977 590.242 803.248C593.841 799.52 595.64 794.726 595.64 788.867C595.64 785.005 594.84 781.61 593.241 778.68C591.642 775.751 589.376 773.421 586.444 771.69C583.645 769.958 580.38 769.093 576.648 769.093C572.917 769.093 569.585 769.958 566.653 771.69C563.854 773.421 561.588 775.817 559.856 778.88C558.257 781.81 557.457 785.139 557.457 788.867C557.457 792.729 558.257 796.191 559.856 799.253C561.455 802.183 563.721 804.513 566.653 806.244C569.585 807.975 572.85 808.841 576.448 808.841ZM594.241 837.803V811.637L599.238 787.669L594.241 764.099V740.131H628.426V837.803H594.241Z" fill="#F10404"/>
<path d="M461.231 837.803V699.784H496.015V837.803H461.231ZM439.64 769.093V740.131H517.606V769.093H439.64Z" fill="#F10404"/>
<path d="M395.83 837.803V782.675C395.83 778.148 394.497 774.619 391.832 772.089C389.166 769.426 385.768 768.094 381.636 768.094C378.837 768.094 376.305 768.693 374.04 769.892C371.907 771.09 370.241 772.755 369.042 774.885C367.842 777.016 367.243 779.612 367.243 782.675L353.649 776.283C353.649 768.427 355.381 761.703 358.846 756.11C362.311 750.384 367.043 745.99 373.04 742.927C379.171 739.731 386.101 738.134 393.831 738.134C400.894 738.134 407.158 739.798 412.623 743.127C418.22 746.323 422.618 750.65 425.817 756.11C429.015 761.569 430.615 767.761 430.615 774.686V837.803H395.83ZM332.458 837.803V740.131H367.243V837.803H332.458Z" fill="#F10404"/>
<path d="M271.143 840C260.215 840 250.552 837.869 242.156 833.608C233.76 829.214 227.163 823.155 222.365 815.432C217.567 807.709 215.168 798.854 215.168 788.867C215.168 779.013 217.5 770.291 222.165 762.701C226.829 754.978 233.16 748.919 241.156 744.525C249.286 739.998 258.416 737.734 268.544 737.734C278.407 737.734 287.136 739.865 294.733 744.126C302.463 748.254 308.46 754.046 312.725 761.503C317.123 768.827 319.322 777.216 319.322 786.67C319.322 788.667 319.189 790.731 318.922 792.862C318.789 794.859 318.389 797.189 317.723 799.853L231.561 800.252V777.881L303.929 777.282L288.336 787.069C288.202 781.61 287.403 777.149 285.937 773.687C284.471 770.092 282.338 767.362 279.539 765.498C276.741 763.633 273.209 762.701 268.944 762.701C264.546 762.701 260.748 763.767 257.549 765.897C254.351 768.028 251.885 771.024 250.153 774.885C248.42 778.747 247.554 783.408 247.554 788.867C247.554 794.46 248.487 799.253 250.352 803.248C252.218 807.11 254.884 810.039 258.349 812.037C261.814 814.034 266.079 815.033 271.143 815.033C275.941 815.033 280.139 814.234 283.738 812.636C287.469 811.038 290.801 808.575 293.733 805.246L311.925 823.422C307.127 828.881 301.263 833.009 294.333 835.805C287.536 838.602 279.806 840 271.143 840Z" fill="#F10404"/>
<path d="M128.387 787.069V760.504H156.375C159.84 760.504 162.972 759.838 165.771 758.507C168.703 757.042 171.035 754.911 172.768 752.115C174.5 749.319 175.367 745.857 175.367 741.729C175.367 737.601 174.5 734.139 172.768 731.342C171.035 728.413 168.703 726.282 165.771 724.951C162.972 723.486 159.84 722.754 156.375 722.754H128.387V696.188H162.572C171.635 696.188 179.831 698.053 187.161 701.781C194.492 705.376 200.289 710.57 204.554 717.361C208.819 724.019 210.951 732.141 210.951 741.729C210.951 751.05 208.819 759.173 204.554 766.097C200.289 772.888 194.492 778.081 187.161 781.676C179.831 785.272 171.635 787.069 162.572 787.069H128.387ZM100 837.803V696.188H135.784V837.803H100Z" fill="#F10404"/>
<path d="M963.633 686.469H976.206C978.908 686.469 981.211 686.876 983.115 687.69C985.02 688.504 986.476 689.708 987.485 691.303C988.511 692.882 989.023 694.835 989.023 697.163C989.023 698.937 988.698 700.499 988.047 701.85C987.396 703.201 986.476 704.341 985.288 705.268C984.1 706.18 982.684 706.888 981.04 707.392L979.185 708.296H967.881L967.832 703.437H976.304C977.769 703.437 978.989 703.177 979.966 702.656C980.942 702.135 981.675 701.427 982.163 700.532C982.668 699.621 982.92 698.595 982.92 697.456C982.92 696.219 982.676 695.145 982.188 694.233C981.715 693.305 980.983 692.597 979.99 692.109C978.997 691.605 977.736 691.352 976.206 691.352H969.761V722.016H963.633V686.469ZM983.921 722.016L975.571 706.05L981.992 706.025L990.464 721.699V722.016H983.921Z" fill="#EE0505"/>
<ellipse cx="975.013" cy="704.977" rx="28.9872" ry="28.962" stroke="#F20707" stroke-width="6"/>
</svg>
